<?xml version="1.0" encoding="utf-8"?>
<!-- Generator: Adobe Illustrator 26.0.1, SVG Export Plug-In . SVG Version: 6.00 Build 0)  -->
<svg version="1.1" id="Layer_1" xmlns="http://www.w3.org/2000/svg" xmlns:xlink="http://www.w3.org/1999/xlink" x="0px" y="0px"
	 viewBox="0 0 3000 2000" enable-background="new 0 0 3000 2000" xml:space="preserve">
<g>
	<path fill="#71E1AB" d="M825.855,1216.179H582.316c-55.955,0-101.316-45.361-101.316-101.316V885.137
		c0-55.955,45.361-101.316,101.316-101.316h243.539c55.955,0,101.316,45.361,101.316,101.316v229.726
		C927.171,1170.818,881.81,1216.179,825.855,1216.179z"/>
	<path fill="#0f1e3c" d="M1256.427,1065.144c-8.039,0-14.718,0-21.397,0c-5.149,0-10.298,0-16.172,0
		c-0.292-3.452-0.717-6.092-0.705-8.729c0.081-17.42,0.449-34.841,0.299-52.258c-0.055-6.328-0.763-12.755-2.08-18.945
		c-2.099-9.866-8.349-15.814-18.491-17.908c-8.682-1.793-17.241-1.665-25.026,2.313c-10.399,5.314-16.858,13.38-16.546,26.178
		c0.477,19.55,0.079,39.122,0.053,58.684c-0.004,3.01-0.001,6.02-0.001,9.782c-12.788,0-24.801,0-37.374,0
		c0-41.699,0-83.087,0-125.437c5.285-0.128,10.365-0.3,15.446-0.361c5.17-0.062,10.34-0.014,16.402-0.014
		c1.197,5.864,2.315,11.344,3.644,17.862c14.162-13.878,29.905-21.987,49.412-21.364c19.285,0.616,35.098,7.388,45.641,24.901
		c9.701-11.822,21.282-20.067,35.906-23.062c17.916-3.669,35.383-2.699,50.973,8.073c10.915,7.542,15.998,18.906,18.624,31.516
		c0.434,2.084,0.729,4.241,0.731,6.365c0.025,26.276-0.012,52.552-0.063,78.828c-0.001,0.57-0.355,1.14-0.546,1.709
		c-7.054,2.326-26.959,2.564-36.585,0.242c0-2.81-0.002-5.811,0-8.811c0.015-19.256-0.134-38.514,0.088-57.768
		c0.289-25.036-17.186-33.79-37.521-29.365c-16.586,3.609-24.632,13.436-24.698,30.152c-0.075,18.951-0.015,37.903-0.014,56.854
		C1256.427,1057.6,1256.427,1060.619,1256.427,1065.144z"/>
	<path fill="#0f1e3c" d="M1662.14,1115.513c0.74-14.117-2.655-19.038-15.312-21.754c-6.518-1.398-13.281-2.156-19.949-2.264
		c-18.048-0.292-36.11-0.345-54.154,0.061c-7.169,0.161-11.454-3.097-14.748-8.741c-0.154-0.264-0.33-0.518-0.457-0.794
		c-11.086-24.191-10.285-24.929,9.246-40.271c1.895-1.489,3.889-2.851,6.044-4.423c-2.449-1.439-4.48-2.799-6.649-3.882
		c-17.486-8.728-29.73-30.12-23.269-54.481c4.122-15.54,12.921-27.604,27.611-34.78c27.852-13.607,55.45-12.007,83.856,1.985
		c12.507-11.192,28.025-13.185,45.231-10.356c0,8.915,0,17.625,0,26.921c-6.584,1.356-14.133-0.859-20.24,4.668
		c0.599,1.306,0.997,2.75,1.823,3.884c15.943,21.892,9.157,58.049-25.146,69.313c-12.901,4.237-26.172,5.908-39.662,5.939
		c-6.107,0.014-12.213-0.792-18.324-0.887c-2.649-0.041-5.661,0.125-7.897,1.33c-5.225,2.818-5.351,7.148-0.859,11
		c4.008,3.437,8.842,3.908,13.806,3.884c15.298-0.072,30.625-0.769,45.884-0.037c9.653,0.463,19.347,2.491,28.74,4.915
		c4.482,1.157,8.871,4.272,12.32,7.537c10.802,10.227,11.455,26.733,1.854,38.205c-1.213,1.449-3.423,2.821-5.224,2.892
		C1678.768,1115.692,1670.849,1115.513,1662.14,1115.513z M1652.379,991.141c-0.871-7.198-2.461-14.473-8.517-19.356
		c-13.795-11.122-37.35-14.343-53.398-1.539c-15.454,12.331-12.918,37.154,4.792,45.798c14.602,7.128,29.298,6.792,43.631-1.266
		C1648.043,1009.631,1651.597,1001.335,1652.379,991.141z"/>
	<path fill="#0f1e3c" d="M2227.788,1048.51c-1.672,5.071-3.44,10.431-5.304,16.082c-10.84,0-21.073,0-31.784,0
		c0-57.072,0-113.518,0-171.071c6.206-0.095,12.188-0.222,18.17-0.269c5.771-0.046,11.542-0.01,17.739-0.01
		c2.225,7.056,0.905,13.759,1.127,20.312c0.227,6.714,0.005,13.443-0.005,20.166c-0.01,6.713-0.002,13.426-0.002,21.294
		c3.538-2.76,6.272-4.963,9.077-7.07c27.607-20.733,69.736-16.631,92.388,9.377c13.236,15.196,17.074,33.56,14.996,53.083
		c-3.899,36.642-31.458,56.663-64.689,57.332c-13.055,0.263-25.691-1.276-37.007-8.22
		C2237.349,1056.359,2232.769,1052.281,2227.788,1048.51z M2227.583,1001.916c-1.066,23.182,12.863,33.184,29.879,36.348
		c6.119,1.137,12.799,1.127,18.924,0.008c18.754-3.428,30.13-18.743,29.409-38.386c-0.733-19.988-12.974-33.315-32.728-35.367
		C2247.398,961.852,2225.497,977.391,2227.583,1001.916z"/>
	<path fill="#0f1e3c" d="M1488.119,955.478c1.246-5.919,2.285-10.85,3.45-16.385c10.94,0,21.782,0,33.21,0
		c0,41.708,0,83.148,0,125.761c-10.645,0.409-20.871,0.446-31.854-0.038c-1.602-5.627-3.159-11.095-4.957-17.412
		c-15.568,17.401-35.506,22.085-57.464,20.124c-17.335-1.548-32.35-8.124-44.372-21.272c-21.405-23.409-22.364-64.806,0.308-89.953
		c13.387-14.849,31.075-20.976,50.887-21.535C1457.012,934.213,1473.657,941.266,1488.119,955.478z M1446.488,963.955
		c-11.693-0.212-21.718,3.514-29.307,12.537c-13.636,16.212-10.695,43.565,5.818,55.81c17.8,13.198,47.367,8.443,58.743-9.449
		c14.522-22.84,2.802-51.735-23.445-57.545C1454.449,964.457,1450.429,964.387,1446.488,963.955z"/>
	<path fill="#0f1e3c" d="M2131.393,955.076c1.407-5.795,2.619-10.788,3.907-16.096c10.798,0,21.109,0,31.338,0
		c2.032,6.788,2.832,107.722,0.931,125.687c-9.961,0.833-20.127,0.64-30.864,0.145c-1.987-5.773-3.845-11.176-5.685-16.522
		c-30.052,30.926-81.022,20.711-100.105-0.065c-21.846-23.785-24.744-66.345-0.96-92.135
		C2052.401,931.75,2099.262,924.103,2131.393,955.076z M2130.465,1001.45c0.135-18.296-7.435-29.29-24.895-34.821
		c-5.422-1.718-11.366-2.391-17.084-2.456c-15.406-0.177-29.038,8.509-33.598,22.222c-5.106,15.351-4.29,30.696,7.961,42.51
		c13.19,12.719,29.34,13.73,45.982,7.244C2123.501,1030.43,2130.334,1019.15,2130.465,1001.45z"/>
	<path fill="#0f1e3c" d="M1747.37,1010.344c1.194,12.339,7.14,19.979,16.214,24.628c15.921,8.157,32.419,8.23,48.349,0.007
		c4.977-2.569,8.86-7.258,14.172-11.763c9.031,4.611,18.943,9.671,29.439,15.03c-7.309,10.118-15.39,17.777-26.187,22.01
		c-26.967,10.574-54.228,11.08-81.357,0.903c-25.99-9.749-39.375-29.863-40.213-56.685c-0.89-28.485,13.121-51.46,38.371-62.078
		c26.318-11.068,53.129-10.651,79.194,0.727c25.808,11.266,39.084,37.909,34.164,67.221
		C1822.548,1010.344,1785.399,1010.344,1747.37,1010.344z M1821.206,988.451c-0.159-14.657-14.798-26.105-35.958-26.724
		c-19.507-0.57-33.194,9.608-36.813,26.724C1772.591,988.451,1796.63,988.451,1821.206,988.451z"/>
	<path fill="#0f1e3c" d="M1917.754,1035.047c31.512,0,61.99,0,93.501,0c0.743,10.131,0.738,19.412,0.17,28.561
		c-7.666,2.014-119.199,2.303-132.149,0.499c-1.832-6.728-2.377-151.422-0.533-165.155c12.582,0,25.268,0,39.011,0
		C1917.754,944.031,1917.754,989.1,1917.754,1035.047z"/>
	<path fill="#0f1e3c" d="M2519,936.621c0,11.025,0,21.63,0,33.49c-4.435,0-8.59,0.003-12.744-0.001
		c-8.62-0.007-17.023,1.196-24.958,4.729c-12.683,5.647-19.453,15.065-19.253,29.34c0.236,16.795,0.053,33.596,0.052,50.395
		c0,3.001,0,6.003,0,10.165c-12.857,0.624-24.875,0.287-37.536,0.206c0-42.383,0-83.739,0-125.794c11.42,0,22.515,0,34.232,0
		c0.695,5.727,1.372,11.306,2.086,17.182C2480.474,939.708,2497.551,933.835,2519,936.621z"/>
	<path fill="#0f1e3c" d="M1050.228,898.691c12.572,0,25.242,0,38.478,0c0,55.31,0,110.114,0,165.928
		c-6.505,0.187-12.806,0.441-19.109,0.531c-6.362,0.091-12.726,0.02-18.835,0.02
		C1048.645,1057.104,1048.287,908.934,1050.228,898.691z"/>
	<path fill="#0f1e3c" d="M2397.695,1064.331c-12.491,0-24.269,0-36.468,0c0-56.037,0-111.276,0-167.033c12.317,0,24.097,0,35.838,0
		C2398.727,903.939,2399.331,1054.951,2397.695,1064.331z"/>
	<g>
		<path fill="#141822" d="M776.573,883.912c6.714,0,13.432-0.142,20.142,0.029c15.108,0.385,26.733,11.288,27.286,26.419
			c0.524,14.32,0.26,28.675,0.081,43.012c-0.077,6.18-3.671,9.87-8.567,9.673c-4.678-0.188-8.802-4.323-8.899-9.847
			c-0.198-11.284,0.078-22.575,0.025-33.862c-0.013-2.713,0.087-5.703-0.962-8.082c-2.735-6.205-7.138-10.448-14.651-10.35
			c-10.985,0.144-21.973,0.028-32.96,0.007c-2.136-0.004-4.296,0.109-6.402-0.166c-4.238-0.555-8.177-4.737-8.241-8.481
			c-0.064-3.717,3.802-7.944,8.433-8.135c8.225-0.34,16.475-0.095,24.714-0.095C776.573,883.994,776.573,883.953,776.573,883.912z"
			/>
		<path fill="#141822" d="M775.959,1117.066c-6.424,0-12.848,0.013-19.272-0.003c-9.261-0.024-13.457-2.747-13.346-8.63
			c0.109-5.787,4.116-8.258,13.733-8.292c10.4-0.037,20.801,0.106,31.2-0.004c2.702-0.029,5.499-0.373,8.077-1.151
			c7.131-2.151,9.947-5.849,10.1-13.353c0.223-11.006,0.208-22.016,0.281-33.025c0.012-1.834-0.19-3.682-0.036-5.501
			c0.4-4.73,4.593-8.991,8.73-9.037c4.305-0.048,8.453,3.958,8.584,9.027c0.229,8.861,0.063,17.734,0.032,26.601
			c-0.017,4.893-0.4,9.805-0.091,14.674c1.023,16.111-12.174,29.385-28.722,28.639c-6.411-0.289-12.846-0.047-19.27-0.047
			C775.959,1116.997,775.959,1117.031,775.959,1117.066z"/>
		<path fill="#141822" d="M631.864,1117.085c-6.731,0-13.484-0.351-20.188,0.07c-15.589,0.98-27.347-15.239-27.057-26.78
			c0.354-14.062,0.428-28.13,0.733-42.193c0.115-5.313,3.544-9.628,7.538-9.935c4.503-0.346,9.602,4.649,9.69,10.169
			c0.187,11.619-0.013,23.245,0.016,34.867c0.028,11.481,5.118,16.686,16.743,16.858c10.094,0.149,20.193,0.008,30.29,0.007
			c1.836,0,3.677-0.026,5.505,0.105c5.43,0.389,9.404,3.708,9.585,7.919c0.197,4.556-3.941,8.357-9.911,8.595
			c-6.11,0.244-12.237,0.078-18.356,0.089c-1.53,0.003-3.06,0-4.59,0C631.864,1116.933,631.864,1117.009,631.864,1117.085z"/>
		<path fill="#141822" d="M585.005,930.662c0-6.711-0.073-13.423,0.015-20.133c0.195-14.891,10.987-26.117,25.889-26.463
			c14.032-0.326,28.075-0.156,42.113-0.203c0.305-0.001,0.611-0.007,0.915,0.012c6.518,0.397,11.038,4.072,10.791,8.77
			c-0.241,4.592-4.977,8.238-11.313,8.279c-11.291,0.073-22.583-0.13-33.874-0.115c-10.943,0.014-16.755,5.711-16.928,16.841
			c-0.176,11.285,0.081,22.578-0.156,33.861c-0.054,2.564-0.816,5.465-2.22,7.563c-1.914,2.858-5.037,4.607-8.753,3.374
			c-3.759-1.247-6.307-3.712-6.325-7.99c-0.033-7.932-0.01-15.864-0.01-23.795C585.101,930.662,585.053,930.662,585.005,930.662z"/>
	</g>
</g>
</svg>
